<svg width="1000" height="163" viewBox="0 0 1000 163" fill="none" xmlns="http://www.w3.org/2000/svg">
<path opacity="0.5" d="M31.8533 44.336C31.2133 44.336 30.6693 44.128 30.2213 43.712C29.7893 43.28 29.5733 42.728 29.5733 42.056C29.5733 41.384 29.7893 40.84 30.2213 40.424C30.6693 39.992 31.2133 39.776 31.8533 39.776C32.5093 39.776 33.0533 39.992 33.4853 40.424C33.9173 40.84 34.1333 41.384 34.1333 42.056C34.1333 42.728 33.9173 43.28 33.4853 43.712C33.0533 44.128 32.5093 44.336 31.8533 44.336ZM39.0018 44.336C38.3618 44.336 37.8178 44.128 37.3698 43.712C36.9378 43.28 36.7218 42.728 36.7218 42.056C36.7218 41.384 36.9378 40.84 37.3698 40.424C37.8178 39.992 38.3618 39.776 39.0018 39.776C39.6578 39.776 40.2018 39.992 40.6338 40.424C41.0658 40.84 41.2818 41.384 41.2818 42.056C41.2818 42.728 41.0658 43.28 40.6338 43.712C40.2018 44.128 39.6578 44.336 39.0018 44.336ZM46.1502 44.336C45.5102 44.336 44.9662 44.128 44.5182 43.712C44.0862 43.28 43.8702 42.728 43.8702 42.056C43.8702 41.384 44.0862 40.84 44.5182 40.424C44.9662 39.992 45.5102 39.776 46.1502 39.776C46.8062 39.776 47.3502 39.992 47.7822 40.424C48.2142 40.84 48.4302 41.384 48.4302 42.056C48.4302 42.728 48.2142 43.28 47.7822 43.712C47.3502 44.128 46.8062 44.336 46.1502 44.336Z" fill="white"/>
<path opacity="0.5" d="M953.853 43.336C953.213 43.336 952.669 43.128 952.221 42.712C951.789 42.28 951.573 41.728 951.573 41.056C951.573 40.384 951.789 39.84 952.221 39.424C952.669 38.992 953.213 38.776 953.853 38.776C954.509 38.776 955.053 38.992 955.485 39.424C955.917 39.84 956.133 40.384 956.133 41.056C956.133 41.728 955.917 42.28 955.485 42.712C955.053 43.128 954.509 43.336 953.853 43.336ZM961.002 43.336C960.362 43.336 959.818 43.128 959.37 42.712C958.938 42.28 958.722 41.728 958.722 41.056C958.722 40.384 958.938 39.84 959.37 39.424C959.818 38.992 960.362 38.776 961.002 38.776C961.658 38.776 962.202 38.992 962.634 39.424C963.066 39.84 963.282 40.384 963.282 41.056C963.282 41.728 963.066 42.28 962.634 42.712C962.202 43.128 961.658 43.336 961.002 43.336ZM968.15 43.336C967.51 43.336 966.966 43.128 966.518 42.712C966.086 42.28 965.87 41.728 965.87 41.056C965.87 40.384 966.086 39.84 966.518 39.424C966.966 38.992 967.51 38.776 968.15 38.776C968.806 38.776 969.35 38.992 969.782 39.424C970.214 39.84 970.43 40.384 970.43 41.056C970.43 41.728 970.214 42.28 969.782 42.712C969.35 43.128 968.806 43.336 968.15 43.336Z" fill="white"/>
<g filter="url(#filter0_b_2107_239)">
<rect x="536.75" y="0.75" width="77.5" height="76.5" stroke="white" stroke-width="1.5"/>
</g>
<g filter="url(#filter1_b_2107_239)">
<rect x="613.75" y="0.75" width="77.5" height="76.5" stroke="white" stroke-width="1.5"/>
</g>
<g filter="url(#filter2_b_2107_239)">
<rect x="690.75" y="0.75" width="77.5" height="76.5" stroke="white" stroke-width="1.5"/>
</g>
<g filter="url(#filter3_b_2107_239)">
<rect x="307.75" y="0.75" width="77.5" height="76.5" stroke="white" stroke-width="1.5"/>
</g>
<g filter="url(#filter4_b_2107_239)">
<rect x="384.75" y="0.75" width="76.5" height="76.5" stroke="white" stroke-width="1.5"/>
</g>
<path d="M570.439 47V30.2H581.239V33.08H573.607V37.088H580.567V39.968H573.607V44.12H581.383V47H570.439Z" fill="white"/>
<path d="M647.674 47V30.2H658.234V33.08H650.842V37.136H657.658V40.016H650.842V47H647.674Z" fill="white"/>
<path d="M728.947 47.336C727.795 47.336 726.747 47.08 725.803 46.568C724.875 46.04 724.131 45.28 723.571 44.288C723.027 43.28 722.755 42.056 722.755 40.616V36.584C722.755 34.424 723.363 32.768 724.579 31.616C725.795 30.448 727.443 29.864 729.523 29.864C731.587 29.864 733.179 30.416 734.299 31.52C735.435 32.608 736.003 34.088 736.003 35.96V36.056H732.883V35.864C732.883 35.272 732.755 34.736 732.499 34.256C732.259 33.776 731.891 33.4 731.395 33.128C730.899 32.84 730.275 32.696 729.523 32.696C728.403 32.696 727.523 33.04 726.883 33.728C726.243 34.416 725.923 35.352 725.923 36.536V40.664C725.923 41.832 726.243 42.776 726.883 43.496C727.523 44.2 728.419 44.552 729.571 44.552C730.723 44.552 731.563 44.248 732.091 43.64C732.619 43.032 732.883 42.264 732.883 41.336V41.096H728.899V38.408H736.003V47H733.075V45.392H732.643C732.531 45.664 732.347 45.952 732.091 46.256C731.851 46.56 731.483 46.816 730.987 47.024C730.491 47.232 729.811 47.336 728.947 47.336Z" fill="white"/>
<path d="M262.327 47L266.743 30.2H272.263L276.679 47H273.415L272.503 43.304H266.503L265.591 47H262.327ZM267.247 40.376H271.759L269.719 32.192H269.287L267.247 40.376Z" fill="#FFDE8B"/>
<path d="M492.112 47V44.216H494.32V32.984H492.112V30.2H499.024C501.28 30.2 502.992 30.776 504.16 31.928C505.344 33.064 505.936 34.76 505.936 37.016V40.184C505.936 42.44 505.344 44.144 504.16 45.296C502.992 46.432 501.28 47 499.024 47H492.112ZM497.488 44.12H499.072C500.352 44.12 501.288 43.784 501.88 43.112C502.472 42.44 502.768 41.496 502.768 40.28V36.92C502.768 35.688 502.472 34.744 501.88 34.088C501.288 33.416 500.352 33.08 499.072 33.08H497.488V44.12Z" fill="#FFDE8B"/>
<g filter="url(#filter5_b_2107_239)">
<rect x="768.75" y="0.75" width="77.5" height="76.5" stroke="white" stroke-width="1.5"/>
</g>
<g filter="url(#filter6_b_2107_239)">
<rect x="845.75" y="0.75" width="77.5" height="76.5" stroke="white" stroke-width="1.5"/>
</g>
<g filter="url(#filter7_b_2107_239)">
<rect x="922.75" y="0.75" width="76.5" height="76.5" stroke="white" stroke-opacity="0.5" stroke-width="1.5"/>
</g>
<path d="M801.209 47V30.2H804.377V37.136H810.617V30.2H813.785V47H810.617V40.016H804.377V47H801.209Z" fill="white"/>
<path d="M882.92 47V30.2H886.088V47H882.92Z" fill="white"/>
<path d="M339.635 47V44.216H341.843V32.984H339.635V30.2H348.275C349.299 30.2 350.187 30.376 350.939 30.728C351.707 31.064 352.299 31.552 352.715 32.192C353.147 32.816 353.363 33.568 353.363 34.448V34.688C353.363 35.456 353.219 36.088 352.931 36.584C352.643 37.064 352.299 37.44 351.899 37.712C351.515 37.968 351.147 38.152 350.795 38.264V38.696C351.147 38.792 351.531 38.976 351.947 39.248C352.363 39.504 352.715 39.88 353.003 40.376C353.307 40.872 353.459 41.52 353.459 42.32V42.56C353.459 43.488 353.243 44.288 352.811 44.96C352.379 45.616 351.779 46.12 351.011 46.472C350.259 46.824 349.379 47 348.371 47H339.635ZM345.011 44.12H347.987C348.675 44.12 349.227 43.952 349.643 43.616C350.075 43.28 350.291 42.8 350.291 42.176V41.936C350.291 41.312 350.083 40.832 349.667 40.496C349.251 40.16 348.691 39.992 347.987 39.992H345.011V44.12ZM345.011 37.112H347.939C348.595 37.112 349.131 36.944 349.547 36.608C349.979 36.272 350.195 35.808 350.195 35.216V34.976C350.195 34.368 349.987 33.904 349.571 33.584C349.155 33.248 348.611 33.08 347.939 33.08H345.011V37.112Z" fill="white"/>
<path d="M423.245 47.336C421.165 47.336 419.517 46.76 418.301 45.608C417.085 44.44 416.477 42.776 416.477 40.616V36.584C416.477 34.424 417.085 32.768 418.301 31.616C419.517 30.448 421.165 29.864 423.245 29.864C425.309 29.864 426.901 30.432 428.021 31.568C429.157 32.688 429.725 34.232 429.725 36.2V36.344H426.605V36.104C426.605 35.112 426.325 34.296 425.765 33.656C425.221 33.016 424.381 32.696 423.245 32.696C422.125 32.696 421.245 33.04 420.605 33.728C419.965 34.416 419.645 35.352 419.645 36.536V40.664C419.645 41.832 419.965 42.768 420.605 43.472C421.245 44.16 422.125 44.504 423.245 44.504C424.381 44.504 425.221 44.184 425.765 43.544C426.325 42.888 426.605 42.072 426.605 41.096V40.664H429.725V41C429.725 42.968 429.157 44.52 428.021 45.656C426.901 46.776 425.309 47.336 423.245 47.336Z" fill="white"/>
<g filter="url(#filter8_b_2107_239)">
<rect x="0.75" y="0.75" width="77.5" height="76.5" stroke="white" stroke-opacity="0.5" stroke-width="1.5"/>
</g>
<g filter="url(#filter9_b_2107_239)">
<rect x="77.75" y="0.75" width="77.5" height="76.5" stroke="white" stroke-width="1.5"/>
</g>
<g filter="url(#filter10_b_2107_239)">
<rect x="154.75" y="0.75" width="76.5" height="76.5" stroke="white" stroke-width="1.5"/>
</g>
<path d="M114.916 47V41.216L109.204 30.2H112.732L116.284 37.4H116.716L120.268 30.2H123.796L118.084 41.216V47H114.916Z" fill="white"/>
<path d="M187.69 47V42.968L195.994 33.416V33.032H187.93V30.2H199.306V34.232L191.002 43.784V44.168H199.354V47H187.69Z" fill="white"/>
<rect x="231.5" y="1.5" width="76" height="75" stroke="#FFDE8B" stroke-width="3"/>
<path d="M501 119L501 78" stroke="#FFDE8B" stroke-width="3"/>
<path d="M261 94L270 85L279 94" stroke="#FFDE8B" stroke-width="3"/>
<path d="M270 119L270 86" stroke="#FFDE8B" stroke-width="3"/>
<path d="M502 119L269 119" stroke="#FFDE8B" stroke-width="3"/>
<g filter="url(#filter11_b_2107_239)">
<rect x="461.5" y="1.5" width="75" height="75" stroke="#FFDE8B" stroke-width="3"/>
</g>
<path d="M393.496 156.28C392.443 156.28 391.509 156.093 390.696 155.72C389.883 155.347 389.243 154.813 388.776 154.12C388.323 153.413 388.096 152.58 388.096 151.62V151.26H390.656V151.54C390.656 152.287 390.916 152.887 391.436 153.34C391.956 153.78 392.643 154 393.496 154C394.363 154 395.029 153.793 395.496 153.38C395.976 152.967 396.216 152.447 396.216 151.82V151.62C396.216 151.193 396.109 150.847 395.896 150.58C395.683 150.313 395.396 150.12 395.036 150C394.676 149.867 394.269 149.8 393.816 149.8H391.016V147L395.536 144.6V144.28H388.456V142H398.376V145.4L394.156 147.64V147.96H394.896C395.523 147.96 396.129 148.087 396.716 148.34C397.316 148.593 397.809 148.987 398.196 149.52C398.583 150.04 398.776 150.72 398.776 151.56V151.8C398.776 152.707 398.556 153.5 398.116 154.18C397.676 154.847 397.056 155.367 396.256 155.74C395.469 156.1 394.549 156.28 393.496 156.28Z" fill="#FFDE8B"/>
<path d="M373.952 152.248V149.512H381.056V152.248H373.952Z" fill="#FFDE8B"/>
<defs>
<filter id="filter0_b_2107_239" x="532" y="-4" width="87" height="86" filterUnits="userSpaceOnUse" color-interpolation-filters="sRGB">
<feFlood flood-opacity="0" result="BackgroundImageFix"/>
<feGaussianBlur in="BackgroundImageFix" stdDeviation="2"/>
<feComposite in2="SourceAlpha" operator="in" result="effect1_backgroundBlur_2107_239"/>
<feBlend mode="normal" in="SourceGraphic" in2="effect1_backgroundBlur_2107_239" result="shape"/>
</filter>
<filter id="filter1_b_2107_239" x="609" y="-4" width="87" height="86" filterUnits="userSpaceOnUse" color-interpolation-filters="sRGB">
<feFlood flood-opacity="0" result="BackgroundImageFix"/>
<feGaussianBlur in="BackgroundImageFix" stdDeviation="2"/>
<feComposite in2="SourceAlpha" operator="in" result="effect1_backgroundBlur_2107_239"/>
<feBlend mode="normal" in="SourceGraphic" in2="effect1_backgroundBlur_2107_239" result="shape"/>
</filter>
<filter id="filter2_b_2107_239" x="686" y="-4" width="87" height="86" filterUnits="userSpaceOnUse" color-interpolation-filters="sRGB">
<feFlood flood-opacity="0" result="BackgroundImageFix"/>
<feGaussianBlur in="BackgroundImageFix" stdDeviation="2"/>
<feComposite in2="SourceAlpha" operator="in" result="effect1_backgroundBlur_2107_239"/>
<feBlend mode="normal" in="SourceGraphic" in2="effect1_backgroundBlur_2107_239" result="shape"/>
</filter>
<filter id="filter3_b_2107_239" x="303" y="-4" width="87" height="86" filterUnits="userSpaceOnUse" color-interpolation-filters="sRGB">
<feFlood flood-opacity="0" result="BackgroundImageFix"/>
<feGaussianBlur in="BackgroundImageFix" stdDeviation="2"/>
<feComposite in2="SourceAlpha" operator="in" result="effect1_backgroundBlur_2107_239"/>
<feBlend mode="normal" in="SourceGraphic" in2="effect1_backgroundBlur_2107_239" result="shape"/>
</filter>
<filter id="filter4_b_2107_239" x="380" y="-4" width="86" height="86" filterUnits="userSpaceOnUse" color-interpolation-filters="sRGB">
<feFlood flood-opacity="0" result="BackgroundImageFix"/>
<feGaussianBlur in="BackgroundImageFix" stdDeviation="2"/>
<feComposite in2="SourceAlpha" operator="in" result="effect1_backgroundBlur_2107_239"/>
<feBlend mode="normal" in="SourceGraphic" in2="effect1_backgroundBlur_2107_239" result="shape"/>
</filter>
<filter id="filter5_b_2107_239" x="764" y="-4" width="87" height="86" filterUnits="userSpaceOnUse" color-interpolation-filters="sRGB">
<feFlood flood-opacity="0" result="BackgroundImageFix"/>
<feGaussianBlur in="BackgroundImageFix" stdDeviation="2"/>
<feComposite in2="SourceAlpha" operator="in" result="effect1_backgroundBlur_2107_239"/>
<feBlend mode="normal" in="SourceGraphic" in2="effect1_backgroundBlur_2107_239" result="shape"/>
</filter>
<filter id="filter6_b_2107_239" x="841" y="-4" width="87" height="86" filterUnits="userSpaceOnUse" color-interpolation-filters="sRGB">
<feFlood flood-opacity="0" result="BackgroundImageFix"/>
<feGaussianBlur in="BackgroundImageFix" stdDeviation="2"/>
<feComposite in2="SourceAlpha" operator="in" result="effect1_backgroundBlur_2107_239"/>
<feBlend mode="normal" in="SourceGraphic" in2="effect1_backgroundBlur_2107_239" result="shape"/>
</filter>
<filter id="filter7_b_2107_239" x="918" y="-4" width="86" height="86" filterUnits="userSpaceOnUse" color-interpolation-filters="sRGB">
<feFlood flood-opacity="0" result="BackgroundImageFix"/>
<feGaussianBlur in="BackgroundImageFix" stdDeviation="2"/>
<feComposite in2="SourceAlpha" operator="in" result="effect1_backgroundBlur_2107_239"/>
<feBlend mode="normal" in="SourceGraphic" in2="effect1_backgroundBlur_2107_239" result="shape"/>
</filter>
<filter id="filter8_b_2107_239" x="-4" y="-4" width="87" height="86" filterUnits="userSpaceOnUse" color-interpolation-filters="sRGB">
<feFlood flood-opacity="0" result="BackgroundImageFix"/>
<feGaussianBlur in="BackgroundImageFix" stdDeviation="2"/>
<feComposite in2="SourceAlpha" operator="in" result="effect1_backgroundBlur_2107_239"/>
<feBlend mode="normal" in="SourceGraphic" in2="effect1_backgroundBlur_2107_239" result="shape"/>
</filter>
<filter id="filter9_b_2107_239" x="73" y="-4" width="87" height="86" filterUnits="userSpaceOnUse" color-interpolation-filters="sRGB">
<feFlood flood-opacity="0" result="BackgroundImageFix"/>
<feGaussianBlur in="BackgroundImageFix" stdDeviation="2"/>
<feComposite in2="SourceAlpha" operator="in" result="effect1_backgroundBlur_2107_239"/>
<feBlend mode="normal" in="SourceGraphic" in2="effect1_backgroundBlur_2107_239" result="shape"/>
</filter>
<filter id="filter10_b_2107_239" x="150" y="-4" width="86" height="86" filterUnits="userSpaceOnUse" color-interpolation-filters="sRGB">
<feFlood flood-opacity="0" result="BackgroundImageFix"/>
<feGaussianBlur in="BackgroundImageFix" stdDeviation="2"/>
<feComposite in2="SourceAlpha" operator="in" result="effect1_backgroundBlur_2107_239"/>
<feBlend mode="normal" in="SourceGraphic" in2="effect1_backgroundBlur_2107_239" result="shape"/>
</filter>
<filter id="filter11_b_2107_239" x="456" y="-4" width="86" height="86" filterUnits="userSpaceOnUse" color-interpolation-filters="sRGB">
<feFlood flood-opacity="0" result="BackgroundImageFix"/>
<feGaussianBlur in="BackgroundImageFix" stdDeviation="2"/>
<feComposite in2="SourceAlpha" operator="in" result="effect1_backgroundBlur_2107_239"/>
<feBlend mode="normal" in="SourceGraphic" in2="effect1_backgroundBlur_2107_239" result="shape"/>
</filter>
</defs>
</svg>
