<svg width="1000" height="278" viewBox="0 0 1000 278" fill="none" xmlns="http://www.w3.org/2000/svg">
<g filter="url(#filter0_b_2058_1605)">
<rect x="536.75" y="0.75" width="77.5" height="76.5" stroke="white" stroke-width="1.5"/>
</g>
<g filter="url(#filter1_b_2058_1605)">
<rect x="536.75" y="200.75" width="77.5" height="76.5" stroke="white" stroke-width="1.5"/>
</g>
<g filter="url(#filter2_b_2058_1605)">
<rect x="460.75" y="0.75" width="76.5" height="76.5" stroke="white" stroke-width="1.5"/>
</g>
<g filter="url(#filter3_b_2058_1605)">
<rect x="613.75" y="0.75" width="77.5" height="76.5" stroke="white" stroke-width="1.5"/>
</g>
<g filter="url(#filter4_b_2058_1605)">
<rect x="613.75" y="200.75" width="77.5" height="76.5" stroke="white" stroke-width="1.5"/>
</g>
<g filter="url(#filter5_b_2058_1605)">
<rect x="307.75" y="0.75" width="77.5" height="76.5" stroke="white" stroke-width="1.5"/>
</g>
<g filter="url(#filter6_b_2058_1605)">
<rect x="307.75" y="200.75" width="77.5" height="76.5" stroke="white" stroke-width="1.5"/>
</g>
<g filter="url(#filter7_b_2058_1605)">
<rect x="690.75" y="0.75" width="77.5" height="76.5" stroke="white" stroke-width="1.5"/>
</g>
<g filter="url(#filter8_b_2058_1605)">
<rect x="690.75" y="200.75" width="77.5" height="76.5" stroke="white" stroke-width="1.5"/>
</g>
<g filter="url(#filter9_b_2058_1605)">
<rect x="384.75" y="0.75" width="76.5" height="76.5" stroke="white" stroke-width="1.5"/>
</g>
<g filter="url(#filter10_b_2058_1605)">
<rect x="384.75" y="200.75" width="76.5" height="76.5" stroke="white" stroke-width="1.5"/>
</g>
<path d="M570.439 47V30.2H581.239V33.08H573.607V37.088H580.567V39.968H573.607V44.12H581.383V47H570.439Z" fill="white"/>
<path d="M570.439 247V230.2H581.239V233.08H573.607V237.088H580.567V239.968H573.607V244.12H581.383V247H570.439Z" fill="white"/>
<path d="M262.327 47L266.743 30.2H272.263L276.679 47H273.415L272.503 43.304H266.503L265.591 47H262.327ZM267.247 40.376H271.759L269.719 32.192H269.287L267.247 40.376Z" fill="#FFDE8B"/>
<path d="M262.327 247L266.743 230.2H272.263L276.679 247H273.415L272.503 243.304H266.503L265.591 247H262.327ZM267.247 240.376H271.759L269.719 232.192H269.287L267.247 240.376Z" fill="white"/>
<path d="M492.112 47V44.216H494.32V32.984H492.112V30.2H499.024C501.28 30.2 502.992 30.776 504.16 31.928C505.344 33.064 505.936 34.76 505.936 37.016V40.184C505.936 42.44 505.344 44.144 504.16 45.296C502.992 46.432 501.28 47 499.024 47H492.112ZM497.488 44.12H499.072C500.352 44.12 501.288 43.784 501.88 43.112C502.472 42.44 502.768 41.496 502.768 40.28V36.92C502.768 35.688 502.472 34.744 501.88 34.088C501.288 33.416 500.352 33.08 499.072 33.08H497.488V44.12Z" fill="white"/>
<path d="M647.674 47V30.2H658.234V33.08H650.842V37.136H657.658V40.016H650.842V47H647.674Z" fill="white"/>
<path d="M647.674 247V230.2H658.234V233.08H650.842V237.136H657.658V240.016H650.842V247H647.674Z" fill="white"/>
<path d="M339.635 47V44.216H341.843V32.984H339.635V30.2H348.275C349.299 30.2 350.187 30.376 350.939 30.728C351.707 31.064 352.299 31.552 352.715 32.192C353.147 32.816 353.363 33.568 353.363 34.448V34.688C353.363 35.456 353.219 36.088 352.931 36.584C352.643 37.064 352.299 37.44 351.899 37.712C351.515 37.968 351.147 38.152 350.795 38.264V38.696C351.147 38.792 351.531 38.976 351.947 39.248C352.363 39.504 352.715 39.88 353.003 40.376C353.307 40.872 353.459 41.52 353.459 42.32V42.56C353.459 43.488 353.243 44.288 352.811 44.96C352.379 45.616 351.779 46.12 351.011 46.472C350.259 46.824 349.379 47 348.371 47H339.635ZM345.011 44.12H347.987C348.675 44.12 349.227 43.952 349.643 43.616C350.075 43.28 350.291 42.8 350.291 42.176V41.936C350.291 41.312 350.083 40.832 349.667 40.496C349.251 40.16 348.691 39.992 347.987 39.992H345.011V44.12ZM345.011 37.112H347.939C348.595 37.112 349.131 36.944 349.547 36.608C349.979 36.272 350.195 35.808 350.195 35.216V34.976C350.195 34.368 349.987 33.904 349.571 33.584C349.155 33.248 348.611 33.08 347.939 33.08H345.011V37.112Z" fill="white"/>
<path d="M339.635 247V244.216H341.843V232.984H339.635V230.2H348.275C349.299 230.2 350.187 230.376 350.939 230.728C351.707 231.064 352.299 231.552 352.715 232.192C353.147 232.816 353.363 233.568 353.363 234.448V234.688C353.363 235.456 353.219 236.088 352.931 236.584C352.643 237.064 352.299 237.44 351.899 237.712C351.515 237.968 351.147 238.152 350.795 238.264V238.696C351.147 238.792 351.531 238.976 351.947 239.248C352.363 239.504 352.715 239.88 353.003 240.376C353.307 240.872 353.459 241.52 353.459 242.32V242.56C353.459 243.488 353.243 244.288 352.811 244.96C352.379 245.616 351.779 246.12 351.011 246.472C350.259 246.824 349.379 247 348.371 247H339.635ZM345.011 244.12H347.987C348.675 244.12 349.227 243.952 349.643 243.616C350.075 243.28 350.291 242.8 350.291 242.176V241.936C350.291 241.312 350.083 240.832 349.667 240.496C349.251 240.16 348.691 239.992 347.987 239.992H345.011V244.12ZM345.011 237.112H347.939C348.595 237.112 349.131 236.944 349.547 236.608C349.979 236.272 350.195 235.808 350.195 235.216V234.976C350.195 234.368 349.987 233.904 349.571 233.584C349.155 233.248 348.611 233.08 347.939 233.08H345.011V237.112Z" fill="white"/>
<path d="M728.947 47.336C727.795 47.336 726.747 47.08 725.803 46.568C724.875 46.04 724.131 45.28 723.571 44.288C723.027 43.28 722.755 42.056 722.755 40.616V36.584C722.755 34.424 723.363 32.768 724.579 31.616C725.795 30.448 727.443 29.864 729.523 29.864C731.587 29.864 733.179 30.416 734.299 31.52C735.435 32.608 736.003 34.088 736.003 35.96V36.056H732.883V35.864C732.883 35.272 732.755 34.736 732.499 34.256C732.259 33.776 731.891 33.4 731.395 33.128C730.899 32.84 730.275 32.696 729.523 32.696C728.403 32.696 727.523 33.04 726.883 33.728C726.243 34.416 725.923 35.352 725.923 36.536V40.664C725.923 41.832 726.243 42.776 726.883 43.496C727.523 44.2 728.419 44.552 729.571 44.552C730.723 44.552 731.563 44.248 732.091 43.64C732.619 43.032 732.883 42.264 732.883 41.336V41.096H728.899V38.408H736.003V47H733.075V45.392H732.643C732.531 45.664 732.347 45.952 732.091 46.256C731.851 46.56 731.483 46.816 730.987 47.024C730.491 47.232 729.811 47.336 728.947 47.336Z" fill="white"/>
<path d="M728.947 247.336C727.795 247.336 726.747 247.08 725.803 246.568C724.875 246.04 724.131 245.28 723.571 244.288C723.027 243.28 722.755 242.056 722.755 240.616V236.584C722.755 234.424 723.363 232.768 724.579 231.616C725.795 230.448 727.443 229.864 729.523 229.864C731.587 229.864 733.179 230.416 734.299 231.52C735.435 232.608 736.003 234.088 736.003 235.96V236.056H732.883V235.864C732.883 235.272 732.755 234.736 732.499 234.256C732.259 233.776 731.891 233.4 731.395 233.128C730.899 232.84 730.275 232.696 729.523 232.696C728.403 232.696 727.523 233.04 726.883 233.728C726.243 234.416 725.923 235.352 725.923 236.536V240.664C725.923 241.832 726.243 242.776 726.883 243.496C727.523 244.2 728.419 244.552 729.571 244.552C730.723 244.552 731.563 244.248 732.091 243.64C732.619 243.032 732.883 242.264 732.883 241.336V241.096H728.899V238.408H736.003V247H733.075V245.392H732.643C732.531 245.664 732.347 245.952 732.091 246.256C731.851 246.56 731.483 246.816 730.987 247.024C730.491 247.232 729.811 247.336 728.947 247.336Z" fill="white"/>
<path d="M423.245 47.336C421.165 47.336 419.517 46.76 418.301 45.608C417.085 44.44 416.477 42.776 416.477 40.616V36.584C416.477 34.424 417.085 32.768 418.301 31.616C419.517 30.448 421.165 29.864 423.245 29.864C425.309 29.864 426.901 30.432 428.021 31.568C429.157 32.688 429.725 34.232 429.725 36.2V36.344H426.605V36.104C426.605 35.112 426.325 34.296 425.765 33.656C425.221 33.016 424.381 32.696 423.245 32.696C422.125 32.696 421.245 33.04 420.605 33.728C419.965 34.416 419.645 35.352 419.645 36.536V40.664C419.645 41.832 419.965 42.768 420.605 43.472C421.245 44.16 422.125 44.504 423.245 44.504C424.381 44.504 425.221 44.184 425.765 43.544C426.325 42.888 426.605 42.072 426.605 41.096V40.664H429.725V41C429.725 42.968 429.157 44.52 428.021 45.656C426.901 46.776 425.309 47.336 423.245 47.336Z" fill="white"/>
<path d="M423.245 247.336C421.165 247.336 419.517 246.76 418.301 245.608C417.085 244.44 416.477 242.776 416.477 240.616V236.584C416.477 234.424 417.085 232.768 418.301 231.616C419.517 230.448 421.165 229.864 423.245 229.864C425.309 229.864 426.901 230.432 428.021 231.568C429.157 232.688 429.725 234.232 429.725 236.2V236.344H426.605V236.104C426.605 235.112 426.325 234.296 425.765 233.656C425.221 233.016 424.381 232.696 423.245 232.696C422.125 232.696 421.245 233.04 420.605 233.728C419.965 234.416 419.645 235.352 419.645 236.536V240.664C419.645 241.832 419.965 242.768 420.605 243.472C421.245 244.16 422.125 244.504 423.245 244.504C424.381 244.504 425.221 244.184 425.765 243.544C426.325 242.888 426.605 242.072 426.605 241.096V240.664H429.725V241C429.725 242.968 429.157 244.52 428.021 245.656C426.901 246.776 425.309 247.336 423.245 247.336Z" fill="white"/>
<g filter="url(#filter11_b_2058_1605)">
<rect x="768.75" y="0.75" width="77.5" height="76.5" stroke="white" stroke-opacity="0.5" stroke-width="1.5"/>
</g>
<g filter="url(#filter12_b_2058_1605)">
<rect x="768.75" y="200.75" width="77.5" height="76.5" stroke="white" stroke-opacity="0.5" stroke-width="1.5"/>
</g>
<g filter="url(#filter13_b_2058_1605)">
<rect x="845.75" y="0.75" width="77.5" height="76.5" stroke="white" stroke-opacity="0.5" stroke-width="1.5"/>
</g>
<g filter="url(#filter14_b_2058_1605)">
<rect x="845.75" y="200.75" width="77.5" height="76.5" stroke="white" stroke-opacity="0.5" stroke-width="1.5"/>
</g>
<g filter="url(#filter15_b_2058_1605)">
<rect x="922.75" y="0.75" width="76.5" height="76.5" stroke="white" stroke-opacity="0.5" stroke-width="1.5"/>
</g>
<g filter="url(#filter16_b_2058_1605)">
<rect x="922.75" y="200.75" width="76.5" height="76.5" stroke="white" stroke-opacity="0.5" stroke-width="1.5"/>
</g>
<path opacity="0.5" d="M801.209 47V30.2H804.377V37.136H810.617V30.2H813.785V47H810.617V40.016H804.377V47H801.209Z" fill="white"/>
<path opacity="0.5" d="M801.209 247V230.2H804.377V237.136H810.617V230.2H813.785V247H810.617V240.016H804.377V247H801.209Z" fill="white"/>
<path opacity="0.5" d="M882.92 47V30.2H886.088V47H882.92Z" fill="white"/>
<path opacity="0.5" d="M882.92 247V230.2H886.088V247H882.92Z" fill="white"/>
<path opacity="0.5" d="M31.8533 243.336C31.2133 243.336 30.6693 243.128 30.2213 242.712C29.7893 242.28 29.5733 241.728 29.5733 241.056C29.5733 240.384 29.7893 239.84 30.2213 239.424C30.6693 238.992 31.2133 238.776 31.8533 238.776C32.5093 238.776 33.0533 238.992 33.4853 239.424C33.9173 239.84 34.1333 240.384 34.1333 241.056C34.1333 241.728 33.9173 242.28 33.4853 242.712C33.0533 243.128 32.5093 243.336 31.8533 243.336ZM39.0018 243.336C38.3618 243.336 37.8178 243.128 37.3698 242.712C36.9378 242.28 36.7218 241.728 36.7218 241.056C36.7218 240.384 36.9378 239.84 37.3698 239.424C37.8178 238.992 38.3618 238.776 39.0018 238.776C39.6578 238.776 40.2018 238.992 40.6338 239.424C41.0658 239.84 41.2818 240.384 41.2818 241.056C41.2818 241.728 41.0658 242.28 40.6338 242.712C40.2018 243.128 39.6578 243.336 39.0018 243.336ZM46.1502 243.336C45.5102 243.336 44.9662 243.128 44.5182 242.712C44.0862 242.28 43.8702 241.728 43.8702 241.056C43.8702 240.384 44.0862 239.84 44.5182 239.424C44.9662 238.992 45.5102 238.776 46.1502 238.776C46.8062 238.776 47.3502 238.992 47.7822 239.424C48.2142 239.84 48.4302 240.384 48.4302 241.056C48.4302 241.728 48.2142 242.28 47.7822 242.712C47.3502 243.128 46.8062 243.336 46.1502 243.336Z" fill="white"/>
<path opacity="0.5" d="M953.853 43.336C953.213 43.336 952.669 43.128 952.221 42.712C951.789 42.28 951.573 41.728 951.573 41.056C951.573 40.384 951.789 39.84 952.221 39.424C952.669 38.992 953.213 38.776 953.853 38.776C954.509 38.776 955.053 38.992 955.485 39.424C955.917 39.84 956.133 40.384 956.133 41.056C956.133 41.728 955.917 42.28 955.485 42.712C955.053 43.128 954.509 43.336 953.853 43.336ZM961.002 43.336C960.362 43.336 959.818 43.128 959.37 42.712C958.938 42.28 958.722 41.728 958.722 41.056C958.722 40.384 958.938 39.84 959.37 39.424C959.818 38.992 960.362 38.776 961.002 38.776C961.658 38.776 962.202 38.992 962.634 39.424C963.066 39.84 963.282 40.384 963.282 41.056C963.282 41.728 963.066 42.28 962.634 42.712C962.202 43.128 961.658 43.336 961.002 43.336ZM968.15 43.336C967.51 43.336 966.966 43.128 966.518 42.712C966.086 42.28 965.87 41.728 965.87 41.056C965.87 40.384 966.086 39.84 966.518 39.424C966.966 38.992 967.51 38.776 968.15 38.776C968.806 38.776 969.35 38.992 969.782 39.424C970.214 39.84 970.43 40.384 970.43 41.056C970.43 41.728 970.214 42.28 969.782 42.712C969.35 43.128 968.806 43.336 968.15 43.336Z" fill="white"/>
<path opacity="0.5" d="M31.8533 43.336C31.2133 43.336 30.6693 43.128 30.2213 42.712C29.7893 42.28 29.5733 41.728 29.5733 41.056C29.5733 40.384 29.7893 39.84 30.2213 39.424C30.6693 38.992 31.2133 38.776 31.8533 38.776C32.5093 38.776 33.0533 38.992 33.4853 39.424C33.9173 39.84 34.1333 40.384 34.1333 41.056C34.1333 41.728 33.9173 42.28 33.4853 42.712C33.0533 43.128 32.5093 43.336 31.8533 43.336ZM39.0018 43.336C38.3618 43.336 37.8178 43.128 37.3698 42.712C36.9378 42.28 36.7218 41.728 36.7218 41.056C36.7218 40.384 36.9378 39.84 37.3698 39.424C37.8178 38.992 38.3618 38.776 39.0018 38.776C39.6578 38.776 40.2018 38.992 40.6338 39.424C41.0658 39.84 41.2818 40.384 41.2818 41.056C41.2818 41.728 41.0658 42.28 40.6338 42.712C40.2018 43.128 39.6578 43.336 39.0018 43.336ZM46.1502 43.336C45.5102 43.336 44.9662 43.128 44.5182 42.712C44.0862 42.28 43.8702 41.728 43.8702 41.056C43.8702 40.384 44.0862 39.84 44.5182 39.424C44.9662 38.992 45.5102 38.776 46.1502 38.776C46.8062 38.776 47.3502 38.992 47.7822 39.424C48.2142 39.84 48.4302 40.384 48.4302 41.056C48.4302 41.728 48.2142 42.28 47.7822 42.712C47.3502 43.128 46.8062 43.336 46.1502 43.336Z" fill="white"/>
<g filter="url(#filter17_b_2058_1605)">
<rect x="0.75" y="0.75" width="77.5" height="76.5" stroke="white" stroke-opacity="0.5" stroke-width="1.5"/>
</g>
<g filter="url(#filter18_b_2058_1605)">
<rect x="0.75" y="200.75" width="77.5" height="76.5" stroke="white" stroke-opacity="0.5" stroke-width="1.5"/>
</g>
<g filter="url(#filter19_b_2058_1605)">
<rect x="77.75" y="0.75" width="77.5" height="76.5" stroke="white" stroke-opacity="0.5" stroke-width="1.5"/>
</g>
<g filter="url(#filter20_b_2058_1605)">
<rect x="77.75" y="200.75" width="77.5" height="76.5" stroke="white" stroke-opacity="0.5" stroke-width="1.5"/>
</g>
<g filter="url(#filter21_b_2058_1605)">
<rect x="154.75" y="0.75" width="76.5" height="76.5" stroke="white" stroke-opacity="0.5" stroke-width="1.5"/>
</g>
<g filter="url(#filter22_b_2058_1605)">
<rect x="154.75" y="200.75" width="76.5" height="76.5" stroke="white" stroke-opacity="0.5" stroke-width="1.5"/>
</g>
<path d="M114.916 47V41.216L109.204 30.2H112.732L116.284 37.4H116.716L120.268 30.2H123.796L118.084 41.216V47H114.916Z" fill="white" fill-opacity="0.5"/>
<path d="M114.916 247V241.216L109.204 230.2H112.732L116.284 237.4H116.716L120.268 230.2H123.796L118.084 241.216V247H114.916Z" fill="white" fill-opacity="0.5"/>
<path d="M187.69 47V42.968L195.994 33.416V33.032H187.93V30.2H199.306V34.232L191.002 43.784V44.168H199.354V47H187.69Z" fill="white" fill-opacity="0.5"/>
<path d="M187.69 247V242.968L195.994 233.416V233.032H187.93V230.2H199.306V234.232L191.002 243.784V244.168H199.354V247H187.69Z" fill="white" fill-opacity="0.5"/>
<rect x="231.5" y="1.5" width="76" height="75" stroke="#FFDE8B" stroke-width="3"/>
<g filter="url(#filter23_b_2058_1605)">
<rect x="230.75" y="200.75" width="77.5" height="76.5" stroke="white" stroke-width="1.5"/>
</g>
<g filter="url(#filter24_b_2058_1605)">
<rect x="461.5" y="201.5" width="75" height="75" stroke="#FFDE8B" stroke-width="3"/>
</g>
<path d="M492.112 247V244.216H494.32V232.984H492.112V230.2H499.024C501.28 230.2 502.992 230.776 504.16 231.928C505.344 233.064 505.936 234.76 505.936 237.016V240.184C505.936 242.44 505.344 244.144 504.16 245.296C502.992 246.432 501.28 247 499.024 247H492.112ZM497.488 244.12H499.072C500.352 244.12 501.288 243.784 501.88 243.112C502.472 242.44 502.768 241.496 502.768 240.28V236.92C502.768 235.688 502.472 234.744 501.88 234.088C501.288 233.416 500.352 233.08 499.072 233.08H497.488V244.12Z" fill="#FFDE8B"/>
<line x1="271.5" y1="77" x2="271.5" y2="140" stroke="#FFDE8B" stroke-width="3"/>
<path d="M500 139L500 190" stroke="#FFDE8B" stroke-width="3"/>
<line x1="499" y1="140.5" x2="270" y2="140.5" stroke="#FFDE8B" stroke-width="3"/>
<path d="M509 183L500 192L491 183" stroke="#FFDE8B" stroke-width="3"/>
<path d="M401.496 117.28C400.443 117.28 399.509 117.093 398.696 116.72C397.883 116.347 397.243 115.813 396.776 115.12C396.323 114.413 396.096 113.58 396.096 112.62V112.26H398.656V112.54C398.656 113.287 398.916 113.887 399.436 114.34C399.956 114.78 400.643 115 401.496 115C402.363 115 403.029 114.793 403.496 114.38C403.976 113.967 404.216 113.447 404.216 112.82V112.62C404.216 112.193 404.109 111.847 403.896 111.58C403.683 111.313 403.396 111.12 403.036 111C402.676 110.867 402.269 110.8 401.816 110.8H399.016V108L403.536 105.6V105.28H396.456V103H406.376V106.4L402.156 108.64V108.96H402.896C403.523 108.96 404.129 109.087 404.716 109.34C405.316 109.593 405.809 109.987 406.196 110.52C406.583 111.04 406.776 111.72 406.776 112.56V112.8C406.776 113.707 406.556 114.5 406.116 115.18C405.676 115.847 405.056 116.367 404.256 116.74C403.469 117.1 402.549 117.28 401.496 117.28Z" fill="#FFDE8B"/>
<path d="M389.667 106.667L390.374 107.374L391.081 106.667L390.374 105.96L389.667 106.667ZM385.5 116.833C386.053 116.833 386.5 116.386 386.5 115.833C386.5 115.281 386.053 114.833 385.5 114.833L385.5 116.833ZM386.207 111.54L390.374 107.374L388.96 105.96L384.793 110.126L386.207 111.54ZM390.374 105.96L386.207 101.793L384.793 103.207L388.96 107.374L390.374 105.96ZM389.667 105.667L380.917 105.667L380.917 107.667L389.667 107.667L389.667 105.667ZM380.917 116.833L385.5 116.833L385.5 114.833L380.917 114.833L380.917 116.833ZM375.334 111.25C375.334 114.334 377.833 116.833 380.917 116.833L380.917 114.833C378.938 114.833 377.334 113.229 377.334 111.25L375.334 111.25ZM380.917 105.667C377.833 105.667 375.334 108.166 375.334 111.25L377.334 111.25C377.334 109.271 378.938 107.667 380.917 107.667L380.917 105.667Z" fill="#FFDE8B"/>
<defs>
<filter id="filter0_b_2058_1605" x="532" y="-4" width="87" height="86" filterUnits="userSpaceOnUse" color-interpolation-filters="sRGB">
<feFlood flood-opacity="0" result="BackgroundImageFix"/>
<feGaussianBlur in="BackgroundImageFix" stdDeviation="2"/>
<feComposite in2="SourceAlpha" operator="in" result="effect1_backgroundBlur_2058_1605"/>
<feBlend mode="normal" in="SourceGraphic" in2="effect1_backgroundBlur_2058_1605" result="shape"/>
</filter>
<filter id="filter1_b_2058_1605" x="532" y="196" width="87" height="86" filterUnits="userSpaceOnUse" color-interpolation-filters="sRGB">
<feFlood flood-opacity="0" result="BackgroundImageFix"/>
<feGaussianBlur in="BackgroundImageFix" stdDeviation="2"/>
<feComposite in2="SourceAlpha" operator="in" result="effect1_backgroundBlur_2058_1605"/>
<feBlend mode="normal" in="SourceGraphic" in2="effect1_backgroundBlur_2058_1605" result="shape"/>
</filter>
<filter id="filter2_b_2058_1605" x="456" y="-4" width="86" height="86" filterUnits="userSpaceOnUse" color-interpolation-filters="sRGB">
<feFlood flood-opacity="0" result="BackgroundImageFix"/>
<feGaussianBlur in="BackgroundImageFix" stdDeviation="2"/>
<feComposite in2="SourceAlpha" operator="in" result="effect1_backgroundBlur_2058_1605"/>
<feBlend mode="normal" in="SourceGraphic" in2="effect1_backgroundBlur_2058_1605" result="shape"/>
</filter>
<filter id="filter3_b_2058_1605" x="609" y="-4" width="87" height="86" filterUnits="userSpaceOnUse" color-interpolation-filters="sRGB">
<feFlood flood-opacity="0" result="BackgroundImageFix"/>
<feGaussianBlur in="BackgroundImageFix" stdDeviation="2"/>
<feComposite in2="SourceAlpha" operator="in" result="effect1_backgroundBlur_2058_1605"/>
<feBlend mode="normal" in="SourceGraphic" in2="effect1_backgroundBlur_2058_1605" result="shape"/>
</filter>
<filter id="filter4_b_2058_1605" x="609" y="196" width="87" height="86" filterUnits="userSpaceOnUse" color-interpolation-filters="sRGB">
<feFlood flood-opacity="0" result="BackgroundImageFix"/>
<feGaussianBlur in="BackgroundImageFix" stdDeviation="2"/>
<feComposite in2="SourceAlpha" operator="in" result="effect1_backgroundBlur_2058_1605"/>
<feBlend mode="normal" in="SourceGraphic" in2="effect1_backgroundBlur_2058_1605" result="shape"/>
</filter>
<filter id="filter5_b_2058_1605" x="303" y="-4" width="87" height="86" filterUnits="userSpaceOnUse" color-interpolation-filters="sRGB">
<feFlood flood-opacity="0" result="BackgroundImageFix"/>
<feGaussianBlur in="BackgroundImageFix" stdDeviation="2"/>
<feComposite in2="SourceAlpha" operator="in" result="effect1_backgroundBlur_2058_1605"/>
<feBlend mode="normal" in="SourceGraphic" in2="effect1_backgroundBlur_2058_1605" result="shape"/>
</filter>
<filter id="filter6_b_2058_1605" x="303" y="196" width="87" height="86" filterUnits="userSpaceOnUse" color-interpolation-filters="sRGB">
<feFlood flood-opacity="0" result="BackgroundImageFix"/>
<feGaussianBlur in="BackgroundImageFix" stdDeviation="2"/>
<feComposite in2="SourceAlpha" operator="in" result="effect1_backgroundBlur_2058_1605"/>
<feBlend mode="normal" in="SourceGraphic" in2="effect1_backgroundBlur_2058_1605" result="shape"/>
</filter>
<filter id="filter7_b_2058_1605" x="686" y="-4" width="87" height="86" filterUnits="userSpaceOnUse" color-interpolation-filters="sRGB">
<feFlood flood-opacity="0" result="BackgroundImageFix"/>
<feGaussianBlur in="BackgroundImageFix" stdDeviation="2"/>
<feComposite in2="SourceAlpha" operator="in" result="effect1_backgroundBlur_2058_1605"/>
<feBlend mode="normal" in="SourceGraphic" in2="effect1_backgroundBlur_2058_1605" result="shape"/>
</filter>
<filter id="filter8_b_2058_1605" x="686" y="196" width="87" height="86" filterUnits="userSpaceOnUse" color-interpolation-filters="sRGB">
<feFlood flood-opacity="0" result="BackgroundImageFix"/>
<feGaussianBlur in="BackgroundImageFix" stdDeviation="2"/>
<feComposite in2="SourceAlpha" operator="in" result="effect1_backgroundBlur_2058_1605"/>
<feBlend mode="normal" in="SourceGraphic" in2="effect1_backgroundBlur_2058_1605" result="shape"/>
</filter>
<filter id="filter9_b_2058_1605" x="380" y="-4" width="86" height="86" filterUnits="userSpaceOnUse" color-interpolation-filters="sRGB">
<feFlood flood-opacity="0" result="BackgroundImageFix"/>
<feGaussianBlur in="BackgroundImageFix" stdDeviation="2"/>
<feComposite in2="SourceAlpha" operator="in" result="effect1_backgroundBlur_2058_1605"/>
<feBlend mode="normal" in="SourceGraphic" in2="effect1_backgroundBlur_2058_1605" result="shape"/>
</filter>
<filter id="filter10_b_2058_1605" x="380" y="196" width="86" height="86" filterUnits="userSpaceOnUse" color-interpolation-filters="sRGB">
<feFlood flood-opacity="0" result="BackgroundImageFix"/>
<feGaussianBlur in="BackgroundImageFix" stdDeviation="2"/>
<feComposite in2="SourceAlpha" operator="in" result="effect1_backgroundBlur_2058_1605"/>
<feBlend mode="normal" in="SourceGraphic" in2="effect1_backgroundBlur_2058_1605" result="shape"/>
</filter>
<filter id="filter11_b_2058_1605" x="764" y="-4" width="87" height="86" filterUnits="userSpaceOnUse" color-interpolation-filters="sRGB">
<feFlood flood-opacity="0" result="BackgroundImageFix"/>
<feGaussianBlur in="BackgroundImageFix" stdDeviation="2"/>
<feComposite in2="SourceAlpha" operator="in" result="effect1_backgroundBlur_2058_1605"/>
<feBlend mode="normal" in="SourceGraphic" in2="effect1_backgroundBlur_2058_1605" result="shape"/>
</filter>
<filter id="filter12_b_2058_1605" x="764" y="196" width="87" height="86" filterUnits="userSpaceOnUse" color-interpolation-filters="sRGB">
<feFlood flood-opacity="0" result="BackgroundImageFix"/>
<feGaussianBlur in="BackgroundImageFix" stdDeviation="2"/>
<feComposite in2="SourceAlpha" operator="in" result="effect1_backgroundBlur_2058_1605"/>
<feBlend mode="normal" in="SourceGraphic" in2="effect1_backgroundBlur_2058_1605" result="shape"/>
</filter>
<filter id="filter13_b_2058_1605" x="841" y="-4" width="87" height="86" filterUnits="userSpaceOnUse" color-interpolation-filters="sRGB">
<feFlood flood-opacity="0" result="BackgroundImageFix"/>
<feGaussianBlur in="BackgroundImageFix" stdDeviation="2"/>
<feComposite in2="SourceAlpha" operator="in" result="effect1_backgroundBlur_2058_1605"/>
<feBlend mode="normal" in="SourceGraphic" in2="effect1_backgroundBlur_2058_1605" result="shape"/>
</filter>
<filter id="filter14_b_2058_1605" x="841" y="196" width="87" height="86" filterUnits="userSpaceOnUse" color-interpolation-filters="sRGB">
<feFlood flood-opacity="0" result="BackgroundImageFix"/>
<feGaussianBlur in="BackgroundImageFix" stdDeviation="2"/>
<feComposite in2="SourceAlpha" operator="in" result="effect1_backgroundBlur_2058_1605"/>
<feBlend mode="normal" in="SourceGraphic" in2="effect1_backgroundBlur_2058_1605" result="shape"/>
</filter>
<filter id="filter15_b_2058_1605" x="918" y="-4" width="86" height="86" filterUnits="userSpaceOnUse" color-interpolation-filters="sRGB">
<feFlood flood-opacity="0" result="BackgroundImageFix"/>
<feGaussianBlur in="BackgroundImageFix" stdDeviation="2"/>
<feComposite in2="SourceAlpha" operator="in" result="effect1_backgroundBlur_2058_1605"/>
<feBlend mode="normal" in="SourceGraphic" in2="effect1_backgroundBlur_2058_1605" result="shape"/>
</filter>
<filter id="filter16_b_2058_1605" x="918" y="196" width="86" height="86" filterUnits="userSpaceOnUse" color-interpolation-filters="sRGB">
<feFlood flood-opacity="0" result="BackgroundImageFix"/>
<feGaussianBlur in="BackgroundImageFix" stdDeviation="2"/>
<feComposite in2="SourceAlpha" operator="in" result="effect1_backgroundBlur_2058_1605"/>
<feBlend mode="normal" in="SourceGraphic" in2="effect1_backgroundBlur_2058_1605" result="shape"/>
</filter>
<filter id="filter17_b_2058_1605" x="-4" y="-4" width="87" height="86" filterUnits="userSpaceOnUse" color-interpolation-filters="sRGB">
<feFlood flood-opacity="0" result="BackgroundImageFix"/>
<feGaussianBlur in="BackgroundImageFix" stdDeviation="2"/>
<feComposite in2="SourceAlpha" operator="in" result="effect1_backgroundBlur_2058_1605"/>
<feBlend mode="normal" in="SourceGraphic" in2="effect1_backgroundBlur_2058_1605" result="shape"/>
</filter>
<filter id="filter18_b_2058_1605" x="-4" y="196" width="87" height="86" filterUnits="userSpaceOnUse" color-interpolation-filters="sRGB">
<feFlood flood-opacity="0" result="BackgroundImageFix"/>
<feGaussianBlur in="BackgroundImageFix" stdDeviation="2"/>
<feComposite in2="SourceAlpha" operator="in" result="effect1_backgroundBlur_2058_1605"/>
<feBlend mode="normal" in="SourceGraphic" in2="effect1_backgroundBlur_2058_1605" result="shape"/>
</filter>
<filter id="filter19_b_2058_1605" x="73" y="-4" width="87" height="86" filterUnits="userSpaceOnUse" color-interpolation-filters="sRGB">
<feFlood flood-opacity="0" result="BackgroundImageFix"/>
<feGaussianBlur in="BackgroundImageFix" stdDeviation="2"/>
<feComposite in2="SourceAlpha" operator="in" result="effect1_backgroundBlur_2058_1605"/>
<feBlend mode="normal" in="SourceGraphic" in2="effect1_backgroundBlur_2058_1605" result="shape"/>
</filter>
<filter id="filter20_b_2058_1605" x="73" y="196" width="87" height="86" filterUnits="userSpaceOnUse" color-interpolation-filters="sRGB">
<feFlood flood-opacity="0" result="BackgroundImageFix"/>
<feGaussianBlur in="BackgroundImageFix" stdDeviation="2"/>
<feComposite in2="SourceAlpha" operator="in" result="effect1_backgroundBlur_2058_1605"/>
<feBlend mode="normal" in="SourceGraphic" in2="effect1_backgroundBlur_2058_1605" result="shape"/>
</filter>
<filter id="filter21_b_2058_1605" x="150" y="-4" width="86" height="86" filterUnits="userSpaceOnUse" color-interpolation-filters="sRGB">
<feFlood flood-opacity="0" result="BackgroundImageFix"/>
<feGaussianBlur in="BackgroundImageFix" stdDeviation="2"/>
<feComposite in2="SourceAlpha" operator="in" result="effect1_backgroundBlur_2058_1605"/>
<feBlend mode="normal" in="SourceGraphic" in2="effect1_backgroundBlur_2058_1605" result="shape"/>
</filter>
<filter id="filter22_b_2058_1605" x="150" y="196" width="86" height="86" filterUnits="userSpaceOnUse" color-interpolation-filters="sRGB">
<feFlood flood-opacity="0" result="BackgroundImageFix"/>
<feGaussianBlur in="BackgroundImageFix" stdDeviation="2"/>
<feComposite in2="SourceAlpha" operator="in" result="effect1_backgroundBlur_2058_1605"/>
<feBlend mode="normal" in="SourceGraphic" in2="effect1_backgroundBlur_2058_1605" result="shape"/>
</filter>
<filter id="filter23_b_2058_1605" x="226" y="196" width="87" height="86" filterUnits="userSpaceOnUse" color-interpolation-filters="sRGB">
<feFlood flood-opacity="0" result="BackgroundImageFix"/>
<feGaussianBlur in="BackgroundImageFix" stdDeviation="2"/>
<feComposite in2="SourceAlpha" operator="in" result="effect1_backgroundBlur_2058_1605"/>
<feBlend mode="normal" in="SourceGraphic" in2="effect1_backgroundBlur_2058_1605" result="shape"/>
</filter>
<filter id="filter24_b_2058_1605" x="456" y="196" width="86" height="86" filterUnits="userSpaceOnUse" color-interpolation-filters="sRGB">
<feFlood flood-opacity="0" result="BackgroundImageFix"/>
<feGaussianBlur in="BackgroundImageFix" stdDeviation="2"/>
<feComposite in2="SourceAlpha" operator="in" result="effect1_backgroundBlur_2058_1605"/>
<feBlend mode="normal" in="SourceGraphic" in2="effect1_backgroundBlur_2058_1605" result="shape"/>
</filter>
</defs>
</svg>
